<svg xmlns="http://www.w3.org/2000/svg" viewBox="0 0 1536 1920" role="img" aria-labelledby="title desc">
  <title id="title">Funmita catering event spread</title>
  <desc id="desc">An elegant illustrated table spread with Nigerian catering dishes, Chapman drinks, and a gift hamper.</desc>
  <defs>
    <linearGradient id="bg" x1="0" x2="1" y1="0" y2="1">
      <stop offset="0" stop-color="#fbefe1"/>
      <stop offset="0.55" stop-color="#d7672d"/>
      <stop offset="1" stop-color="#20120c"/>
    </linearGradient>
    <linearGradient id="plate" x1="0" x2="1" y1="0" y2="1">
      <stop offset="0" stop-color="#fffaf0"/>
      <stop offset="1" stop-color="#f1d7ad"/>
    </linearGradient>
    <filter id="shadow" x="-20%" y="-20%" width="140%" height="140%">
      <feDropShadow dx="0" dy="24" stdDeviation="28" flood-color="#2b1308" flood-opacity="0.28"/>
    </filter>
  </defs>
  <rect width="1536" height="1920" fill="url(#bg)"/>
  <path d="M0 1280c244-168 500-216 768-144s524 24 768-144v928H0Z" fill="#160d09" opacity=".54"/>
  <g filter="url(#shadow)">
    <ellipse cx="768" cy="1030" rx="560" ry="360" fill="#3b1f13" opacity=".22"/>
    <circle cx="520" cy="770" r="250" fill="url(#plate)"/>
    <circle cx="520" cy="770" r="192" fill="#f7b53c"/>
    <path d="M374 820c80-96 176-128 288-96 48 16 80 48 96 96-120 72-248 72-384 0Z" fill="#c33117"/>
    <circle cx="430" cy="705" r="34" fill="#773018"/>
    <circle cx="512" cy="688" r="28" fill="#773018"/>
    <circle cx="605" cy="718" r="38" fill="#773018"/>
    <circle cx="948" cy="840" r="260" fill="url(#plate)"/>
    <circle cx="948" cy="840" r="198" fill="#fdf5e7"/>
    <path d="M785 840c110-114 238-140 384-78 20 88-28 156-144 204-112 44-212 2-240-126Z" fill="#dd6b20"/>
    <path d="M860 820c76-38 156-42 240-12" fill="none" stroke="#7a2e16" stroke-width="22" stroke-linecap="round"/>
    <path d="M900 910c70 20 140 10 210-30" fill="none" stroke="#7a2e16" stroke-width="22" stroke-linecap="round"/>
    <rect x="976" y="410" width="145" height="350" rx="44" fill="#f4b13b"/>
    <rect x="1010" y="454" width="78" height="230" rx="28" fill="#db3824" opacity=".72"/>
    <path d="M1038 390c42 64 70 126 84 188" fill="none" stroke="#1e120d" stroke-width="18" stroke-linecap="round"/>
    <rect x="1110" y="1120" width="260" height="245" rx="28" fill="#f1c06f"/>
    <path d="M1110 1185h260M1240 1120v245" stroke="#8c3a18" stroke-width="18"/>
    <path d="M1168 1120c-28-74 54-100 72 0 12-102 104-74 72 0" fill="none" stroke="#8c3a18" stroke-width="20" stroke-linecap="round"/>
    <circle cx="498" cy="1188" r="74" fill="#f3b23d"/>
    <circle cx="660" cy="1240" r="64" fill="#f3b23d"/>
    <circle cx="350" cy="1280" r="58" fill="#f3b23d"/>
    <path d="M246 1452c314 136 696 144 1144 24" fill="none" stroke="#fff3dd" stroke-width="18" opacity=".54" stroke-linecap="round"/>
  </g>
</svg>
